<svg xmlns="http://www.w3.org/2000/svg" width="24" height="24" viewBox="0 0 24 24" fill="none" stroke="currentColor" strokeWidth="2" strokeLinecap="round" strokeLinejoin="round">
  <path d="M9.5 2A2.5 2.5 0 0 1 12 4.5V5a3 3 0 0 0 6 0V3a2 2 0 0 1 2-2v6.5a6 6 0 0 1-3 5.2v2.2A2.5 2.5 0 0 1 14.5 17h-2A2.5 2.5 0 0 1 10 14.5V11a2 2 0 0 0-4 0v4.5A2.5 2.5 0 0 1 3.5 18h-2A2.5 2.5 0 0 1 0 15.5v-2A2.5 2.5 0 0 1 2.5 11h2A2.5 2.5 0 0 1 7 13.5V11a4 4 0 0 1 8 0v3.5a.5.5 0 0 0 .5.5h2a.5.5 0 0 0 .5-.5v-2.2a6 6 0 0 1-3-5.2V2z"/>
</svg> 